<?xml version="1.0" encoding="UTF-8" ?>
<svg xmlns="http://www.w3.org/2000/svg"
	xmlns:xlink="http://www.w3.org/1999/xlink"
	xmlns:ev="http://www.w3.org/2001/xml-events"
	version="1.1"
	width="60" height="71">
	<path id="siege" fill="none" stroke="#000" stroke-width="4px" d="m 4.78125,3.125 13,18.875 C 14.538083,32.137842 10.955373,42.693602 8.71875,53.03125 7.3985711,53.03125 3,56.413071 3,60.53125 3,64.660163 6.3398385,67.996697 10.46875,68 c 8.752726,0 5.329483,-7.6875 20.75,-7.6875 4.345865,0 11.40625,5.65625 11.40625,5.65625 2.851583,1.976583 5.027052,1.84375 6.90625,1.84375 4.128913,0 7.46875,-3.339837 7.46875,-7.46875 0,-2.724779 -1.446906,-5.130935 -3.625,-6.4375 0,0 -13.805584,-50.6784092 -13.75,-50.78125 z" />
</svg>
